<svg xmlns="http://www.w3.org/2000/svg" width="1136.717" height="149.016" viewBox="31.863 32.86 1136.717 149.016"><path fill="#FFF" d="M970.574 123.245c-10.8 0-18.003 9.446-18.003 18.24 0 8.144 5.24 13.682 13.094 13.682 10.8 0 18.002-9.12 18.002-18.24 0-7.82-5.237-13.682-13.092-13.682zm88.532-53.42c-7.856 0-16.693 4.234-23.894 10.75h-.327l-.655-8.796h-21.275l-22.258 110.096h26.185l3.928-20.196 1.964-15.31h.327c3.274 5.538 9.166 8.796 15.385 8.796 22.585 0 43.533-24.43 43.533-55.375 0-19.216-8.51-29.965-22.912-29.965zm-22.585 64.17c-3.272 0-6.873-1.955-8.51-6.19l5.565-27.687c3.928-7.166 9.492-9.12 13.748-9.12 4.582 0 7.528 3.583 7.528 12.052 0 18.24-8.837 30.944-18.33 30.944zm112.747-64.17c-9.82 0-18.33 4.886-24.876 10.75h-.654l3.927-14.333 5.565-26.384h-26.185l-22.912 113.354h26.186l10.147-52.117c5.892-6.19 9.82-9.12 14.402-9.12 4.255 0 6.874 2.28 6.874 6.84 0 1.954-.656 4.234-1.31 7.166l-9.492 47.232h26.185l10.147-50.488c.982-3.91 1.31-8.144 1.31-11.726 0-14.007-5.893-21.173-19.313-21.173zM330.594 89.967c0-14.194-6.132-21.456-20.1-21.456-10.9 0-20.44 5.943-28.275 12.545h-.683V70.49h-22.143L242.7 153.016h27.254l10.56-52.815c6.133-6.272 10.22-9.242 14.99-9.242 4.43 0 7.155 2.31 7.155 6.932 0 1.98-.683 4.29-1.364 7.26l-9.88 47.865h27.254l10.56-51.165c.853-3.96 1.364-8.252 1.364-11.883zM225.507 70.49l-3.748 8.253h-.342c-3.066-6.272-10.56-10.233-17.715-10.233-23.506 0-45.308 24.757-45.308 56.116 0 19.476 8.858 30.37 23.846 30.37 8.177 0 18.057-4.622 25.55-12.215h.342v10.234h22.143l17.033-82.524h-21.8zm-16.012 52.156c-4.428 8.913-10.56 10.893-14.99 10.893-4.768 0-7.834-3.632-7.834-12.215 0-18.485 9.2-31.36 19.078-31.36 3.066 0 7.154 1.982 9.198 6.273l-5.45 26.408zM378.79 104.16c-6.472-3.63-13.627-5.61-13.627-10.232 0-3.3 3.407-5.942 8.858-5.942s10.22 3.3 14.31 7.262l14.647-13.534c-7.154-7.262-16.693-13.204-28.956-13.204-19.076 0-34.406 11.884-34.406 27.728 0 10.893 8.006 18.485 16.352 23.107 8.857 4.95 14.308 6.602 14.308 10.893 0 3.3-4.428 5.612-9.538 5.612s-10.9-2.64-17.033-9.573l-15.67 12.544c7.494 10.894 21.12 16.175 31 16.175 21.463 0 36.793-11.223 36.793-27.728-.003-12.213-8.86-18.815-17.036-23.106zM703.236 59.93c9.198 0 16.352-6.272 16.352-14.854 0-7.922-7.154-12.214-14.308-12.214-9.198 0-16.352 6.932-16.352 14.854 0 8.253 7.154 12.214 14.308 12.214zM48.366 66.99c-3.766 20.42-16.503 86.807-16.503 86.807l27.84.223s20.5-106.813 23.11-115.878c-12.837-2.74-29.685 3.02-34.448 28.85zm73.417 1.52c-23.506 0-48.374 20.136-48.374 52.155 0 20.466 13.626 34.33 34.065 34.33 23.506 0 48.375-20.136 48.375-52.155 0-20.465-13.627-34.33-34.067-34.33zm-11.242 65.36c-6.47 0-9.537-5.282-9.537-13.535 0-17.826 7.835-30.7 17.715-30.7 6.472 0 9.538 5.282 9.538 13.535 0 17.826-7.836 30.7-17.715 30.7zm680.187-45.392c-1.606 2.216-3.35 4.278-4.943 6.507l-.28.21v.14l-.14.07c-.024.072-.048.142-.07.212l-.28.21v.14l-.142.072-.07.21-.28.21v.14c-.07.047-.14.094-.212.14v.14l-.28.21v.142l-.14.07-.07.21-.28.21v.142l-.14.07c-.024.07-.048.14-.07.21l-.28.21v.14l-.142.072-.07.21-.28.21v.142c-.07.047-.14.094-.212.14v.14c-.093.07-.187.142-.28.21v.142l-.28.21v.14l-.21.142v.14l-.28.21v.14l-.14.07c-.024.07-.048.142-.07.212l-.282.21v.142l-.14.07-.07.21c-.093.07-.187.142-.28.21v.14l-.14.072-.07.21-.28.21v.14l-.21.142v.14c-.094.07-.188.14-.28.212-1.963 2.74-4.143 5.26-6.102 8.003l-.28.21v.14l-.21.142v.14l-.28.21v.142l-.28.21v.14l-.14.07c-.025.07-.048.14-.07.21-.094.07-.188.14-.282.212v.14l-.14.07-.07.212-.28.21v.14l-.14.07-.07.212-.282.21v.142l-.14.07-.07.21-.28.212v.14l-.142.07-.07.21-.28.21v.142l-.21.14v.14l-.28.212v.14l-.212.142v.14l-.28.21v.14c-.047.025-.094.048-.14.07-.024.072-.048.142-.07.212l-.28.21v.14c-.07.047-.14.095-.212.14v.14l-.28.212v.14l-.14.07-.07.21-.28.212v.14l-.14.07c-.025.072-.048.142-.07.212l-.28.21v.14l-.142.072-.07.21-.28.21v.14c-.047.025-.093.048-.14.07l-.07.212-.28.21v.142l-.14.07c-.024.07-.048.14-.07.21-.094.072-.188.14-.282.212v.14l-.21.142v.14l-.28.21v.14l-.21.142v.14l-.282.21v.142l-.14.07-.07.21-.28.21v.142l-.21.14v.14l-.282.21v.14l-.28.212v.14l-.14.07c-.024.07-.048.14-.07.21-.094.072-.188.14-.28.212v.14l-.14.07-.072.212-.28.21v.14l-.14.07-.07.212-.282.21v.14l-.14.07-.07.21-.28.21v.14l-.21.142v.14l-.282.21v.14c-.07.048-.14.095-.21.14v.142l-.28.21c-1.962 2.74-4.142 5.26-6.1 8.003l-.28.21v.14c-.095.07-.188.142-.282.212v.14l-.14.07-.07.21-.28.21v.142c-.047.022-.093.045-.14.07l-.07.21-.28.21v.14l-.21.14v.14c-.093.072-.187.142-.28.212v.14l-.14.07c-.024.07-.048.142-.07.212l-.28.21v.14l-.14.072c-.024.07-.048.14-.07.21l-.28.21v.14l-.14.07-.07.21-.282.212v.14c-.07.048-.14.095-.21.14v.142l-.28.21v.14l-.35.282-.14.21h-.07v.14l-.21.072c-.095.117-.19.234-.282.35-.093.025-.187.048-.28.07v.07c-.993.43-1.76-.568-2.174-.982l-.28-.21-.07-.14h-.14l-1.473-1.545-.28-.21v-.07h-.14c-.235-.26-.47-.516-.702-.774-.356-.356-.707-.682-1.122-.982-.162-.187-.326-.374-.49-.56-.423-.425-.84-.838-1.332-1.194l-.35-.42c-.446-.447-.885-.89-1.402-1.264l-.7-.772c-.586-.538-1.17-1.077-1.754-1.615-.35-.374-.7-.75-1.052-1.123-.518-.376-.957-.818-1.402-1.264l-.35-.42h-.14l-.21-.282-.56-.49-.843-.914c-.518-.375-.957-.817-1.402-1.264l-.42-.49h-.14l-1.403-1.475-.21-.14v-.07h-.14l-1.473-1.545-.21-.14v-.07h-.14l-.21-.28-.632-.563-.772-.843h-.14l-.07-.14h-.07l-1.543-1.615h-.14c-.187-.21-.374-.42-.56-.632-.442-.442-.91-.72-1.123-1.404-.065-.21.084-.858.14-.982h.07v-.14l.14-.07v-.14l.562-.492c.163-.187.326-.375.49-.56.07-.048.14-.095.21-.14v-.14c.163-.142.327-.282.49-.422.188-.21.375-.42.562-.632l.28-.21v-.14c.42-.4.842-.797 1.263-1.194v-.14l.77-.703.42-.49c.07-.048.142-.095.212-.14v-.142l1.332-1.263v-.14l1.4-1.334v-.14c.165-.14.33-.28.492-.42l.07-.142c.167-.118.36-.13.49-.28l.562-.072c.973.222 1.436.947 2.034 1.545.356.356.707.682 1.122.983l.982 1.053.63.56.21.282h.142l.42.492c.443.442.89.893 1.403 1.263l.42.49.983.914.35.42h.14c.305.328.61.656.912.983l.63.562.21.28h.14l.422.49c.442.444.89.894 1.402 1.265l.84.912c.468.42.936.843 1.403 1.264.242.245.637.82.98.914.048-.09.11-.095.14-.14v-.14c.07-.048.14-.095.21-.14v-.142l.282-.21v-.14l.21-.142v-.14l.28-.21v-.14c.047-.025.094-.048.14-.07l.07-.212.28-.21v-.14l.14-.07c.025-.07.048-.14.07-.212l.28-.21v-.14l.14-.07.07-.21c.094-.072.188-.142.282-.212v-.14l.21-.14v-.14l.28-.21v-.142c.07-.047.14-.094.212-.14v-.14c.093-.07.187-.142.28-.21v-.142l.14-.07c.023-.07.046-.142.07-.21l.28-.21v-.14l.14-.072.07-.21c.093-.072.187-.14.28-.212v-.14l.21-.14v-.14c.094-.07.188-.14.28-.212 1.808-2.523 3.807-4.845 5.61-7.37l.282-.212v-.14l.14-.07.07-.212.28-.21v-.14l.14-.07.07-.21c.093-.072.187-.142.28-.212v-.14l.21-.14v-.14l.14-.07v-.072l.14-.07v-.14l.282-.21v-.14c.047-.024.093-.048.14-.07l.07-.212.28-.21v-.142l.14-.07.07-.21.28-.212v-.14l.14-.07c.024-.07.048-.14.07-.212l.282-.21v-.14c.07-.047.14-.095.21-.14v-.142l.28-.21v-.142l.142-.07.07-.21c.094-.07.187-.14.28-.212v-.14l.14-.07c.024-.07.048-.14.07-.21l.282-.21v-.142l.21-.14v-.14c.094-.07.187-.142.28-.21 1.808-2.525 3.807-4.846 5.61-7.372l.282-.21v-.14c.046-.025.093-.048.14-.07l.07-.212.28-.21v-.14c.047-.024.093-.048.14-.07l.07-.21.282-.212v-.14l.14-.07.07-.21.28-.21v-.154l.21-.14v-.14l.282-.21v-.142l.14-.07.07-.21.28-.212v-.14l.14-.07.07-.212.282-.21v-.14l.14-.07.07-.21.28-.212v-.14l.282-.21v-.14l.21-.142v-.14l.28-.21v-.14c.07-.048.14-.095.212-.142v-.138l.28-.21c1.962-2.742 4.142-5.26 6.1-8.004l.282-.21v-.14c.046-.025.093-.048.14-.072l.07-.21.28-.21v-.142l.14-.07.07-.21.28-.21v-.14l.21-.142v-.14l.28-.21.066-.194c-5.726-4.543-13.24-7.117-22.02-7.117-23.507 0-48.375 20.135-48.375 52.154 0 20.466 13.627 34.33 34.067 34.33 23.506 0 48.374-20.136 48.374-52.155-.004-5.27-.922-10.09-2.613-14.362zm89.64 1.49c0-14.195-6.13-21.457-20.098-21.457-10.903 0-20.44 5.943-28.276 12.545h-.68V70.49H809.17l-16.693 82.525h27.253l10.56-52.815c6.132-6.272 10.22-9.242 14.99-9.242 4.428 0 7.154 2.31 7.154 6.932 0 1.98-.682 4.29-1.362 7.26l-9.88 47.865h27.254l10.56-51.165c.85-3.96 1.362-8.252 1.362-11.883zM448.79 68.51c-23.507 0-48.375 20.136-48.375 52.155 0 20.466 13.627 34.33 34.066 34.33 23.507 0 48.376-20.136 48.376-52.155 0-20.465-13.627-34.33-34.067-34.33zm-11.243 65.36c-6.472 0-9.538-5.282-9.538-13.535 0-17.826 7.834-30.7 17.713-30.7 6.473 0 9.54 5.282 9.54 13.535 0 17.826-7.836 30.7-17.716 30.7zM685.18 70.49l-17.033 82.525H695.4l17.033-82.524H685.18zm243.384 33.67c-6.473-3.63-13.627-5.61-13.627-10.232 0-3.3 3.407-5.942 8.858-5.942 5.45 0 10.22 3.3 14.308 7.262l14.648-13.534c-7.153-7.262-16.692-13.204-28.955-13.204-19.078 0-34.408 11.884-34.408 27.728 0 10.893 8.006 18.485 16.352 23.107 8.856 4.95 14.307 6.602 14.307 10.893 0 3.3-4.428 5.612-9.538 5.612s-10.902-2.64-17.034-9.573l-15.67 12.544c7.494 10.894 21.12 16.175 31 16.175 21.46 0 36.79-11.223 36.79-27.728 0-12.213-8.857-18.815-17.032-23.106zM498.648 66.99c-3.765 20.42-16.502 86.807-16.502 86.807l27.84.223s20.5-106.813 23.11-115.878c-12.837-2.74-29.686 3.02-34.448 28.85zm77.878 56.316c-5.45 6.272-9.54 9.243-13.967 9.243-4.43 0-7.155-2.312-7.155-6.933 0-1.98.68-4.29 1.362-7.262l9.88-47.864h-27.254l-10.56 51.166c-.852 3.96-1.363 8.253-1.363 11.884 0 14.194 6.132 21.456 20.1 21.456 10.22 0 20.098-5.94 27.252-12.543h.68v10.563h22.144l16.693-82.524h-27.255l-10.56 52.814zm77.15-32.35h14.362l4.088-20.465h-13.68l4.087-21.125H639.71l-7.495 21.126-12.264.99-4.087 19.477h10.9l-6.47 30.04c-.683 3.63-1.364 7.26-1.364 10.892 0 13.533 7.493 23.105 25.55 23.105 9.538 0 9.62-1.98 14.388-3.63l2.304-18.487c-2.044.99-4.088 1.65-6.132 1.65-5.45 0-8.176-2.31-8.176-7.26 0-1.652 0-3.302.34-5.283l6.472-31.028z"/></svg>